# xmcd
#
# Track frame offsets: 
#        150
#        22826
#        40722
#        56629
#        87215
#        112855
#        134928
#        149380
#        169714
#        191189
#        213216
#        234464
#
# Disc length: 3314 seconds
#
# Revision: 0
# Processed by: cddbd v1.5.1PL0 Copyright (c) Steve Scherf et al.
# Submitted via: ExactAudioCopy v0.95a5
#
DISCID=a30cf00c
DTITLE=Joe Mack - When I Think About Love
DYEAR=1999
DGENRE=Blues
TTITLE0=01 They Say
TTITLE1=02 When I Think About Love
TTITLE2=03 I Used To Have A Brain (Then I Got Married)
TTITLE3=04 Peace of Mind
TTITLE4=05 Song For Jeanne
TTITLE5=06 Joe's Boogie
TTITLE6=07 Turnup Joe Zamp
TTITLE7=08 You Ain't What You Wear (But You Are What You Do)
TTITLE8=09 Hen House Blues
TTITLE9=10 Desperate
TTITLE10=11 Mean Old Woman Blues
TTITLE11=12 Peppermint Stick
EXTD=
EXTT0=
EXTT1=
EXTT2=
EXTT3=
EXTT4=
EXTT5=
EXTT6=
EXTT7=
EXTT8=
EXTT9=
EXTT10=
EXTT11=
PLAYORDER=
